<?xml version="1.0" standalone="no"?>
<!DOCTYPE svg PUBLIC "-//W3C//DTD SVG 20010904//EN"
 "http://www.w3.org/TR/2001/REC-SVG-20010904/DTD/svg10.dtd">
<svg version="1.0" xmlns="http://www.w3.org/2000/svg"
 width="441.000000pt" height="65.000000pt" viewBox="0 0 441.000000 65.000000"
 preserveAspectRatio="xMidYMid meet">

<g transform="translate(0.000000,65.000000) scale(0.100000,-0.100000)"
fill="#FFFFFF" stroke="none">
<path d="M1330 589 l-76 -58 -19 -76 c-18 -74 -19 -75 -50 -75 l-32 0 18 67
c11 37 19 71 19 75 0 5 -27 8 -59 8 -50 0 -61 -3 -66 -19 -16 -50 -134 -496
-132 -498 2 -1 37 25 79 57 l76 60 18 75 c18 74 18 75 50 75 l33 0 -20 -70
c-10 -38 -19 -72 -19 -75 0 -3 28 -5 62 -3 l61 3 68 254 c38 140 68 256 66
257 -1 1 -36 -24 -77 -57z"/>
<path d="M46 522 c-2 -4 -7 -24 -11 -45 l-7 -37 41 0 c27 0 41 -4 41 -13 0 -7
-20 -89 -46 -182 -25 -94 -49 -185 -54 -203 -10 -38 -10 -38 81 34 l65 52 38
138 c20 77 39 147 42 156 4 12 18 18 52 20 45 3 47 4 58 46 l13 42 -154 0
c-85 0 -156 -3 -159 -8z"/>
<path d="M385 518 c-2 -7 -26 -96 -53 -198 l-49 -185 150 -3 c83 -1 154 1 158
5 4 5 11 25 14 46 l7 37 -91 0 -91 0 6 28 c9 35 5 32 109 78 l90 39 -80 5
c-73 5 -80 7 -77 25 7 44 9 45 105 45 l94 0 10 45 10 45 -154 0 c-114 0 -155
-3 -158 -12z"/>
<path d="M725 518 c-2 -7 -25 -92 -50 -188 -25 -96 -48 -181 -50 -188 -4 -10
28 -12 152 -10 l156 3 18 65 c10 36 18 69 19 73 0 4 -28 7 -62 5 -57 -3 -63
-5 -68 -28 -4 -19 -13 -26 -38 -28 -18 -2 -32 -2 -32 0 0 2 13 50 29 108 27
103 29 105 59 108 30 3 31 2 25 -32 l-6 -36 56 0 c31 0 59 5 63 11 3 6 15 42
24 80 l18 69 -154 0 c-115 0 -156 -3 -159 -12z"/>
<path d="M1401 498 c-5 -18 -24 -87 -41 -153 -17 -66 -38 -141 -45 -168 l-14
-47 63 0 63 0 28 108 c36 138 36 139 62 104 l21 -29 -24 -84 c-13 -46 -24 -88
-24 -92 0 -4 28 -7 62 -5 l62 3 53 195 c28 107 52 196 53 198 0 1 -29 2 -64 2
l-63 0 -7 -32 -7 -33 -20 33 c-20 31 -24 32 -84 32 -63 0 -64 0 -74 -32z"/>
<path d="M1739 488 c-6 -24 -30 -114 -54 -201 l-42 -157 156 2 156 3 47 175
c25 96 49 185 52 198 l6 22 -154 0 -155 0 -12 -42z m171 -55 c0 -5 -13 -53
-29 -108 -27 -98 -28 -100 -59 -103 l-31 -3 25 93 c13 51 27 101 30 111 3 11
15 17 35 17 16 0 29 -3 29 -7z"/>
<path d="M2246 522 c-2 -4 -7 -24 -11 -45 l-7 -37 41 0 c27 0 41 -4 41 -13 0
-7 -20 -89 -46 -182 -25 -94 -49 -185 -54 -202 -4 -18 -7 -33 -5 -33 6 0 155
120 155 125 0 3 13 53 29 112 16 60 34 127 40 151 l12 42 48 0 48 0 10 45 10
45 -153 0 c-84 0 -155 -3 -158 -8z"/>
<path d="M2585 518 c-12 -34 -134 -502 -132 -505 2 -1 37 24 78 56 l75 59 19
76 c19 75 19 76 51 76 l33 0 -20 -67 c-10 -38 -19 -72 -19 -76 0 -4 28 -7 62
-5 l61 3 24 90 c13 50 37 138 52 198 l29 107 -154 0 c-115 0 -156 -3 -159 -12z
m159 -105 c-9 -38 -17 -45 -45 -41 -18 2 -23 8 -21 23 6 39 12 45 42 45 28 0
30 -2 24 -27z"/>
<path d="M2925 518 c-2 -7 -25 -92 -50 -188 -25 -96 -48 -181 -50 -188 -4 -10
28 -12 152 -10 l156 3 18 65 c10 36 18 69 19 73 0 4 -28 7 -62 5 -57 -3 -63
-5 -68 -28 -4 -19 -13 -26 -38 -28 -18 -2 -32 -2 -32 0 0 2 13 50 29 108 27
103 29 105 59 108 30 3 31 2 25 -32 l-6 -36 56 0 c31 0 59 5 63 11 3 6 15 42
24 80 l18 69 -154 0 c-115 0 -156 -3 -159 -12z"/>
<path d="M3261 499 c-18 -52 -15 -59 29 -59 31 0 40 -4 40 -17 0 -10 -24 -106
-54 -213 -29 -107 -52 -197 -50 -199 2 -2 37 24 78 58 62 51 77 69 87 104 6
23 24 90 40 150 16 59 29 110 29 112 0 3 22 5 49 5 45 0 49 2 54 28 3 15 9 35
12 45 7 16 -4 17 -148 17 l-155 0 -11 -31z"/>
<path d="M3599 488 c-52 -191 -127 -473 -125 -475 1 -1 36 24 77 56 l75 59 52
195 c29 107 52 197 52 201 0 3 -27 6 -60 6 l-59 0 -12 -42z"/>
<path d="M3717 353 c-26 -98 -50 -188 -54 -200 l-5 -23 156 0 c86 0 156 3 156
8 0 4 9 37 19 75 l20 67 -64 0 c-62 0 -64 -1 -70 -30 -5 -25 -11 -30 -36 -30
-16 0 -29 3 -29 6 0 3 12 53 27 110 26 102 27 104 56 104 28 0 29 -1 23 -35
l-7 -36 62 3 62 3 18 65 c10 36 18 71 19 78 0 9 -37 12 -153 12 l-153 0 -47
-177z"/>
<path d="M4077 428 c-15 -57 -30 -113 -33 -125 -6 -23 -5 -23 86 -23 91 0 92
0 86 -22 -3 -13 -6 -26 -6 -30 0 -5 -13 -8 -30 -8 -20 0 -30 5 -30 15 0 12
-13 15 -59 15 l-60 0 -15 -54 c-9 -30 -16 -57 -16 -60 0 -3 70 -6 155 -6 85 0
155 2 155 5 0 2 14 54 30 115 17 61 30 113 30 115 0 3 -40 5 -90 5 -49 0 -90
4 -90 9 0 5 4 21 10 35 11 30 60 38 60 11 0 -13 11 -15 61 -13 l62 3 13 45
c22 74 30 70 -139 70 l-153 0 -27 -102z"/>
</g>
</svg>
